# xmcd
#
# Track frame offsets:
#	150
#	11584
#	22256
#	36644
#	50102
#	64679
#	79763
#	91155
#	101656
#	114197
#	125136
#	135683
#	148371
#	159108
#
# Disc length: 2277 seconds
#
# Revision: 1
# Processed by: cddbd v1.5.1PL2 Copyright (c) Steve Scherf et al.
# Submitted via: audiograbber 1.83.01
#
DISCID=c608e30e
DTITLE=Various Artist - Stardust Cowboys - The Best Of Country
DYEAR=2004
DGENRE=Country
TTITLE0=Tom T. Hall - Ravishing Ruby
TTITLE1=Johnny Cash - You Win Again
TTITLE2=B. J. Thomas - I'm So Lonesome I Could Cry
TTITLE3=Pattie Page - Tennesee Waltz
TTITLE4=George Jones - A Good Year For The Roses
TTITLE5=Frankie Laine - Sixteen Tons
TTITLE6=Willie Nelson - Broken Promise
TTITLE7=Ray Conniff - É O Amor
TTITLE8=Johnny Cash - I Walk The Line
TTITLE9=Roger Miller - King Of The Road
TTITLE10=Willie Nelson - No Tomorrow In Sight
TTITLE11=Frankie Laine - High Noon
TTITLE12=Ricky Nelson - Travelin Man
TTITLE13=Ernest Tubb - Walking The Floor Over You
EXTD=
EXTT0=
EXTT1=
EXTT2=
EXTT3=
EXTT4=
EXTT5=
EXTT6=
EXTT7=
EXTT8=
EXTT9=
EXTT10=
EXTT11=
EXTT12=
EXTT13=
PLAYORDER=
